<?xml version="1.0" encoding="utf-8"?>
<!-- Generator: Adobe Illustrator 24.0.1, SVG Export Plug-In . SVG Version: 6.00 Build 0)  -->
<svg version="1.1" id="Layer_1" xmlns="http://www.w3.org/2000/svg" xmlns:xlink="http://www.w3.org/1999/xlink" x="0px" y="0px"
	 viewBox="0 0 2696.92 12823.79" style="enable-background:new 0 0 2696.92 12823.79;" xml:space="preserve">
<style type="text/css">
	.st0{opacity:0.8;}
	.st1{fill:#FAFAFA;}
	.st2{fill:#F7F7F7;}
	.st3{fill:#F6F6F6;}
	.st4{fill:#FBFBFB;}
	.st5{fill:#F9F9F9;}
	.st6{opacity:0.8;fill:#FAFAFA;}
	.st7{fill:#F7F6F6;}
	.st8{fill:#F8F8F8;}
</style>
<g>
	<g>
		<g>
			<g class="st0">
				<path class="st1" d="M1352.36,564.36c1.65-56.24,3.38-98.47,5.17-126.55l1.12-98.47l-0.9,210.94
					c-1.05,379.72-1.5,857.83-3.23,1167.16c0.15-91.46,0.17-200.43,0.17-304.19c0-34.4,0-68.53,0-101.14
					c0-65.02,0.01-124.28,0.06-171.18l0.15,28.08l-1.05-210.94l0.07-210.94l-0.07,210.94L1352.36,564.36"/>
				<path class="st1" d="M1356.8,6710.81l0.04-9l0.4,50.06c0.45,196.86,0.9,393.72,1.57,576.58c0.63,222.61,0.94,454.96,0.94,697.22
					c0,48.4-0.01,97.23-0.04,146.53l-1.2-295.33c0-9.69,0-19.36,0-28.91C1358.51,7430.9,1356.98,7089.57,1356.8,6710.81"/>
				<path class="st2" d="M1363.09,8144.05c0.53,224.87,0.9,464.04,1.28,703.13h-0.68c-0.12-132.38-0.47-273.35-0.47-416.25
					c0-39.28,0.03-78.75,0.09-118.1l-0.15,28.08L1363.09,8144.05"/>
				<polyline class="st2" points="1362.56,8650.17 1363.01,8861.25 1362.86,8889.33 1362.56,8650.17 				"/>
				<polyline class="st2" points="1343.51,6653.41 1343.74,6597.17 1343.59,6667.48 1343.51,6653.41 				"/>
				<polyline class="st2" points="1337.51,8819.02 1337.89,8720.62 1337.51,8819.02 				"/>
				<polyline class="st2" points="1337.89,8720.62 1337.89,8706.55 1337.89,8720.62 				"/>
				<polyline class="st2" points="1359.04,10098.72 1359.41,10028.41 1359.04,10098.72 				"/>
				<polyline class="st2" points="1339.16,9240.9 1339.31,9212.67 1339.16,9240.9 				"/>
				<polyline class="st2" points="1360.62,4012.84 1361.51,3854.98 1360.62,4012.84 				"/>
				<polyline class="st2" points="1343.74,6597.17 1344.34,6484.7 1343.74,6597.17 				"/>
				<polyline class="st2" points="1360.69,9915.8 1360.91,9817.47 1360.76,9901.86 1360.69,9915.8 				"/>
				<polyline class="st2" points="1358.59,10225.27 1359.04,10098.72 1358.81,10183.11 1358.59,10225.27 				"/>
				<polyline class="st2" points="1361.29,9325.29 1361.66,9479.99 1361.59,9508.14 1361.66,9479.99 1361.59,9508.14 
					1361.51,9508.14 1361.29,9325.29 				"/>
				<path class="st2" d="M1359.94,10098.72l0.75-182.93l0.23-98.33l-0.15,84.39c0.67-182.79,1.27-379.72,1.65-590.65l-0.38-28.08
					l-0.23,281.25l-0.15-84.39l-0.08,28.15l-0.07,56.24v-56.24l-0.75,281.25l0.52-112.54l-0.52,140.62v-28.08l-0.6,126.41
					L1359.94,10098.72 M1360.76,9817.47v28.15V9817.47 M1361.51,9564.38L1361.51,9564.38"/>
				<polyline class="st3" points="1360.76,9901.86 1360.91,9817.47 1360.76,9901.86 				"/>
				<polyline class="st3" points="1361.59,9508.14 1361.66,9479.99 1361.59,9508.14 				"/>
				<polyline class="st2" points="1358.44,10436.21 1358.59,10365.9 1358.81,10267.5 1359.86,9972.18 1360.16,9915.8 
					1359.94,10098.72 1358.44,10436.21 				"/>
				<polyline class="st2" points="1361.51,9564.38 1361.51,9508.14 1361.59,9508.14 1361.51,9564.38 				"/>
				<polyline class="st3" points="1361.51,9564.38 1361.51,9508.14 1361.51,9564.38 				"/>
				<polyline class="st2" points="1358.36,10464.36 1358.41,10409.15 1358.59,10365.9 1358.44,10436.21 1358.36,10464.36 				"/>
				<polyline class="st2" points="1358.36,10422.2 1358.41,10409.15 1358.36,10422.2 				"/>
				<polyline class="st2" points="1358.44,10384.57 1358.59,10225.27 1358.59,10309.66 1358.44,10384.57 				"/>
				<polyline class="st3" points="1361.59,9508.14 1361.66,9479.99 1361.59,9508.14 				"/>
				<polyline class="st2" points="1358.36,10422.2 1358.44,10384.57 1358.36,10422.2 				"/>
				<polyline class="st2" points="1358.41,10409.15 1358.44,10384.57 1358.59,10309.66 1358.81,10267.5 1358.59,10365.9 
					1358.81,10267.5 1358.59,10365.9 1358.41,10409.15 				"/>
				<polyline class="st3" points="1358.36,10422.2 1358.44,10384.57 1358.41,10409.15 1358.36,10422.2 				"/>
				<polyline class="st3" points="1358.44,10384.57 1358.59,10309.66 1358.44,10384.57 				"/>
				<polyline class="st3" points="1358.59,10365.9 1358.81,10267.5 1358.59,10365.9 				"/>
				<polyline class="st2" points="1358.59,10309.66 1358.59,10225.27 1358.81,10183.11 1358.59,10309.66 				"/>
				<polyline class="st3" points="1358.59,10225.27 1358.81,10183.11 1358.59,10225.27 				"/>
				<polyline class="st3" points="1358.59,10309.66 1358.59,10225.27 1358.59,10309.66 				"/>
				<polyline class="st2" points="1358.59,10309.66 1358.81,10183.11 1359.26,10112.8 1358.81,10253.43 1358.81,10267.5 
					1358.59,10309.66 				"/>
				<polyline class="st3" points="1358.59,10309.66 1358.81,10183.11 1358.59,10309.66 				"/>
				<polyline class="st3" points="1360.76,9845.63 1360.76,9817.47 1360.76,9845.63 				"/>
				<polyline class="st2" points="1360.76,9817.47 1360.76,9789.39 1361.29,9676.85 1360.76,9817.47 				"/>
				<polyline class="st3" points="1360.76,9817.47 1360.76,9789.39 1360.76,9817.47 				"/>
				<polyline class="st3" points="1360.76,9789.39 1361.29,9676.85 1360.76,9789.39 				"/>
				<polyline class="st2" points="1359.86,9972.18 1360.09,9887.79 1360.16,9915.8 1359.86,9972.18 				"/>
				<polyline class="st2" points="1358.81,10267.5 1358.81,10253.43 1359.86,9972.18 1358.81,10267.5 				"/>
				<polyline class="st3" points="1358.81,10267.5 1358.81,10253.43 1358.81,10267.5 1358.81,10253.43 1358.81,10267.5 				"/>
				<polyline class="st3" points="1358.81,10267.5 1358.81,10253.43 1358.81,10267.5 				"/>
				<polyline class="st2" points="1343.96,9114.35 1344.71,8903.41 1344.04,9142.5 1343.96,9114.35 				"/>
				<polyline class="st2" points="1343.66,9015.95 1344.86,8819.02 1343.81,9072.05 1343.66,9015.95 				"/>
				<path class="st2" d="M1341.34,8861.25c0.08-196.86,0.15-379.72,0.83-534.42l-0.3,267.24V8580L1341.34,8861.25"/>
				<polyline class="st2" points="1341.34,8861.25 1341.86,8580 1341.86,8594.08 1341.34,8861.25 				"/>
				<polyline class="st3" points="1341.34,8861.25 1341.86,8580 1341.34,8861.25 				"/>
				<polyline class="st2" points="1343.59,8959.65 1343.96,8889.33 1343.66,9015.95 1343.59,8959.65 				"/>
				<polyline class="st2" points="1343.89,9536.22 1344.04,9451.83 1343.89,9536.22 				"/>
				<path class="st4" d="M1346.36,12404.96l0.22,70.31l0.6,98.47c0.45-154.7,0.9-309.4,1.05-492.19l-0.3,56.24
					c0.08-196.86,0.75-337.49,0.98-506.26C1348.01,11870.62,1347.56,12180.02,1346.36,12404.96 M1347.94,12137.79L1347.94,12137.79"
					/>
				<polyline class="st2" points="1348.24,11336.27 1348.31,11279.96 1348.24,11336.27 				"/>
				<polyline class="st2" points="1348.24,12081.55 1348.31,11997.17 1348.24,12081.55 				"/>
				<polyline class="st2" points="1348.01,11420.59 1348.24,11336.27 1348.01,11420.59 				"/>
				<polyline class="st2" points="1345.91,9508.14 1346.06,9423.75 1346.51,9339.36 1346.06,9508.14 1345.91,9508.14 				"/>
				<polyline class="st2" points="1345.76,9508.14 1346.06,9423.75 1345.91,9508.14 1345.76,9508.14 				"/>
				<polyline class="st2" points="1344.79,9536.22 1345.09,9465.91 1345.91,9297.2 1345.39,9508.14 1344.79,9536.22 				"/>
				<polyline class="st2" points="1344.71,9536.22 1345.09,9465.91 1344.79,9536.22 1344.71,9536.22 				"/>
				<polyline class="st2" points="1344.49,9550.3 1345.31,9353.3 1345.09,9465.91 1344.71,9536.22 1344.49,9550.3 				"/>
				<path class="st4" d="M1346.06,9508.14l0.45-168.78l-0.45,84.39c0.23-154.7,0.3-337.49,0.68-492.33
					c0.14,82.88,0.18,165.75,0.18,248.5c0,142.2-0.14,284.42-0.18,426.62L1346.06,9508.14"/>
				<polyline class="st2" points="1346.06,9508.14 1346.51,9339.36 1346.06,9508.14 				"/>
				<path class="st2" d="M1346.89,9676.85c0.45-210.94,0.67-449.96,1.65-604.8c0.01,15.52,0.01,30.63,0.01,45.59
					c0,290.59-1.29,493.78-1.29,788.82c0,7.76,0,15.59,0,23.55c0.67-140.63,1.2-365.64,1.88-506.27
					c-0.6,225.01-1.35,435.95-2.1,646.89L1346.89,9676.85"/>
				<polyline class="st2" points="1349.06,9339.36 1350.49,9044.04 1350.19,9170.58 1349.06,9339.36 				"/>
				<polyline class="st2" points="1351.46,8650.17 1351.54,8608.08 1351.61,8594.08 1351.46,8650.17 				"/>
				<path class="st2" d="M1350.71,8903.41l0.23-70.31l0.52-182.93l0.08-42.09L1350.71,8903.41 M1350.94,8833.1l0.52-182.93
					L1350.94,8833.1"/>
				<path class="st2" d="M1350.19,9170.58l0.3-126.55l0.45-210.94l0.52-182.93l0.15-56.1l-0.08,14.01l1.27-267.17l-0.23,309.26
					C1351.69,8805.01,1351.01,9001.88,1350.19,9170.58"/>
				<polyline class="st3" points="1350.19,9170.58 1350.49,9044.04 1350.19,9170.58 				"/>
				<polyline class="st3" points="1351.46,8650.17 1351.61,8594.08 1351.46,8650.17 				"/>
				<polyline class="st3" points="1350.94,8833.1 1351.46,8650.17 1350.94,8833.1 				"/>
				<polyline class="st3" points="1350.94,8833.1 1351.46,8650.17 1350.94,8833.1 				"/>
				<path class="st2" d="M1353.11,8565.92c0.22-154.7,0.52-295.33,1.13-407.8l0.22,337.49l-0.45-42.16L1353.11,8565.92"/>
				<polyline class="st2" points="1339.99,5387.78 1340.59,5261.23 1340.74,5303.39 1339.99,5387.78 				"/>
				<path class="st2" d="M1339.24,1534.66c2.4-281.25,4.87-506.26,7.57-689.05l-0.23,421.88c-0.52,455.25-2.31,910.42-4.86,904.18
					c-0.36-0.9-0.74-11.26-1.14-32.34C1340.36,1928.39,1339.76,1717.45,1339.24,1534.66"/>
				<path class="st2" d="M1340.21,3208.09l0.3-56.24c0.3,98.47,1.05,112.47,1.12,281.25
					C1340.89,3404.95,1340.59,3306.41,1340.21,3208.09"/>
				<path class="st5" d="M1339.31,2673.74c1.02-112.95,1.32-262.22,1.32-418.71c0-38.25-0.02-76.98-0.05-115.71
					c0.39,21.08,0.77,31.44,1.14,32.34c2.55,6.24,4.34-448.93,4.86-904.18c-0.13,348.54-0.23,697.01-0.28,1045.56
					c-0.01,116.24-0.02,232.35-0.02,348.61c0,336.87,0.06,673.67,0.22,1010.53l0.67-42.23c0.06-80.75,0.1-161.92,0.11-243
					c0.02-78.83,0.02-157.58,0.02-235.66c0-24.44,0-48.75,0-72.93c0-145.36,0.01-287.9,0.11-424.55
					c0.1-136.36,0.29-266.77,0.66-387.89c0.33,188.62,0.48,383.63,0.48,579.12c0,129.7-0.07,259.55-0.2,387.89
					c-0.39,385.41-1.34,757.91-2.69,1072.06c-0.45,112.47-0.67,281.25-0.82,449.96l0.15-239.02l-0.68-28.15l-1.57,323.41l0.15-84.32
					l0.45-309.4l0.38-281.25c0.09-58.02,0.13-116.11,0.13-174.4v-0.07c0-182.24-0.37-368.59-0.65-570.81l-0.38,239.02
					c-0.22,39.61-0.45,58.71-0.68,62.48c-0.97,15.74-1.86-262.08-2.1-456.2l0.15-28.15c0.38,98.32,0.68,196.86,1.43,225.01
					c-0.08-168.78-0.83-182.78-1.12-281.25l0.9-56.24l0.75-196.86c1.2,98.4,0.9-239.09,1.95-210.94l0.75-337.56l-1.12-182.78
					C1342.54,2420.57,1341.26,2687.82,1339.31,2673.74"/>
				<path class="st3" d="M1341.72,2171.67c2.55,6.24,4.34-448.93,4.86-904.18C1346.06,1722.73,1344.27,2177.91,1341.72,2171.67"/>
				<path class="st3" d="M1340.51,3151.85c0.3,98.47,1.05,112.47,1.12,281.25C1341.56,3264.32,1340.81,3250.32,1340.51,3151.85"/>
				<path class="st2" d="M1341.86,5008.13l0.9-196.93l0.15-84.32l0.45-309.4l-0.15-14.08l-0.6,267.17l0.07-295.26
					c-0.52,112.47-0.6,253.1-0.75,393.72L1341.86,5008.13 M1342.09,4839.35L1342.09,4839.35 M1342.91,4726.88l0.45-309.4
					L1342.91,4726.88 M1342.91,4726.88L1342.91,4726.88"/>
				<polyline class="st3" points="1342.91,4726.88 1343.36,4417.48 1342.91,4726.88 				"/>
				<polyline class="st2" points="1340.06,3165.79 1340.51,3151.85 1340.21,3208.09 1340.06,3165.79 				"/>
				<polyline class="st2" points="1353.41,1844.07 1353.94,1829.99 1353.41,1844.07 				"/>
				<path class="st6" d="M1332.56,3320.63c2.1-365.64,5.02-112.54,7.5-154.84l0.15,42.3l-0.15,28.15
					c0.24,194.12,1.13,471.94,2.1,456.2c0.22-3.77,0.45-22.87,0.68-62.48l0.38-239.02c0.28,202.22,0.65,388.58,0.65,570.81
					c0,58.36-0.04,116.45-0.13,174.47l-0.38,281.25l-0.15-14.08l0.3-253.24c-0.75,140.62-0.83,337.63-0.9,520.41l0.07-295.26
					c-0.52,112.47-0.6,253.1-0.75,393.72l-0.38-42.16l-1.5,168.71l1.05-323.55l-0.75-112.4c-1.28,112.4-2.85,253.03-3.9,478.18
					c1.2-295.33,3.08-520.34,3.53-928.28l-0.68-28.01l0.45-84.39c-1.27,98.47-1.88,309.4-3.15,393.65l1.2-253.03
					c-0.82,14.08-1.42,140.63-2.1,182.85c1.03-207.91,3.53-238.21,3.53-481.28c0-3.63,0-7.34,0-11.05c0-5.7,0-11.46,0-17.1
					c0-432.79-2.8-430.45-4.88-249.93l0.38-84.39C1334.29,3222.17,1333.24,3362.79,1332.56,3320.63"/>
				<path class="st2" d="M1342.16,3692.44c0.22-3.77,0.45-22.87,0.68-62.48l0.38-239.02l-0.38,239.02
					C1342.61,3669.58,1342.39,3688.68,1342.16,3692.44"/>
				<path class="st2" d="M1343.21,3390.94c0.28,202.22,0.65,388.58,0.65,570.81C1343.87,3779.52,1343.5,3593.16,1343.21,3390.94"/>
				<polyline class="st3" points="1342.61,4670.58 1342.69,4375.32 1342.61,4670.58 				"/>
				<polyline class="st3" points="1343.21,4403.4 1343.36,4417.48 1343.21,4403.4 				"/>
				<path class="st6" d="M1344.56,5219.07l0.15,56.1l0.45,70.45l0.15-84.39l-0.15,84.39l0.6,14.08l0.82-196.93l-0.22,112.4
					l0.82-168.64l-0.52,210.94h0.38l0.3-70.31c0.3-168.71,0.3-351.56,0.75-506.27c0.1,72.1,0.13,144.34,0.13,217.06
					c0,153.73-0.15,309.6-0.21,472.06l0.15,56.24c0.45-211.08,0.67-450.03,1.65-604.73c0.01,15.45,0.01,30.49,0.01,45.39
					c0,290.79-1.29,493.83-1.29,788.95c0,7.76,0,15.65,0,23.48c0.67-140.62,1.2-365.64,1.88-506.26
					c-0.6,225.01-1.35,435.95-2.1,646.89v28.15c-0.3,281.25-0.67,534.35-0.98,787.52l0.98-323.48l-0.98,323.48
					c-0.6,407.66-1.2,787.44-2.02,1181.24l1.43-309.4c0.75,196.86,0.52,421.88,0.82,604.73c0.52-295.33,1.43-548.49,1.73-829.75
					c-0.3,281.25-1.2,534.42-1.73,829.75l0.08,56.09c1.2-238.95,1.65-548.28,2.55-787.37c-0.23,168.78-0.9,309.4-0.98,506.12
					l0.3-56.1l0.07-84.53l-0.07,84.53c-0.15,182.78-0.6,337.35-1.05,492.19c0.98,168.71,1.95,365.57,2.03,562.5v98.4l0.45-210.94
					l-0.23,70.31l0.83-295.33l1.27-267.17l-0.23,309.26l0.53-84.25c0.22-154.7,0.52-295.33,1.13-407.8l0.22,337.49l0.98,196.86
					l1.27-28.08c0.99-119.48,1.58-314.21,1.58-548.57c0-13.87,0-27.94-0.01-42.09l-1.12,13.94l0.75-70.17l-0.83-126.55l0.15-126.62
					c-0.68-70.31-0.86-161.78-0.86-260.17s0.19-203.86,0.26-302.33l-0.38,84.39c-0.48-44.97-0.64-99.01-0.64-155.73
					c0-85.22,0.35-176.13,0.49-252.07l0.69-167.61c0-5.29-0.01-10.17-0.01-15.17l0.05,6.17l0.03-6.17l0.22-239.09l0.45-126.55
					l0.38-70.45l-0.38,70.45l-0.23,84.39l0.45-70.31l-0.38,140.62l0.98-281.25l0.22-98.47l0.08,28.15l0.6-126.62l0.82-267.17
					l-0.22-182.93l0.3,154.84l0.15,84.32l0.23-281.25l0.38,14.08c0.23-112.61,0.38-253.24,0.45-393.86v-13.94l-0.3-239.09
					l0.45,210.94l0.67-14.01c-0.06-135.48-0.46-279.94-0.46-426.21c0-35.97,0.02-72.1,0.08-108.21l-0.15,28.01l-0.08-210.8
					c-0.29-119.48-0.62-235.45-0.96-348.4l-0.54,95.23l0.54-95.23c-1.24-406.36-2.83-765.82-4.89-1029.77
					c0.45,196.93,0.9,393.79,1.57,562.5c0.68,253.38,0.99,506.81,0.99,770.56c0,29.04,0,58.02-0.01,87.27l-1.2-295.33v14.08
					l-0.45-70.31l0.45,56.24c0-449.96-1.65-787.44-1.72-1195.31l0.38,70.31c-0.45-239.16-0.9-478.11-1.35-717.13l-1.95-267.24
					l-0.15,225.01l-0.38-126.55c-0.13-18.46-0.33-90.91-0.52-98.13c-0.24-9.06-0.45,89.34-0.45,548.16l0.15,239.02
					c-0.6-267.17-1.27-506.26-2.4-703.13l-0.6,182.85c0.33,188.48,0.48,383.63,0.48,579.12c0,129.63-0.07,259.55-0.2,387.89
					c-0.39,385.41-1.34,757.91-2.69,1072.06c-0.45,112.47-0.67,281.25-0.82,449.96v28.15l0.38-84.39l-0.3,126.55l1.2-196.86
					l-1.05,253.1l0.15,42.23l0.75-211.08l-0.68,239.16l0.3,56.31L1344.56,5219.07 M1347.56,7890.95L1347.56,7890.95
					 M1347.56,7890.95L1347.56,7890.95 M1349.29,7229.98c-0.52,210.94-1.42,393.72-1.73,660.97
					C1347.86,7623.71,1348.76,7440.92,1349.29,7229.98l0.23-84.39l0.07-56.24l-0.07,56.24L1349.29,7229.98l-0.23-14.08l0.23-225.01
					l-0.23,225.01L1349.29,7229.98 M1347.71,6569.02L1347.71,6569.02 M1347.71,6569.02L1347.71,6569.02 M1348.99,6062.82
					c-0.08,196.72-1.2,323.41-1.28,506.19C1347.79,6386.23,1348.91,6259.54,1348.99,6062.82 M1347.86,6358.08L1347.86,6358.08
					 M1347.86,6358.08L1347.86,6358.08 M1348.99,5894.04v-14.08l0.15-140.63l-0.15,140.63V5894.04
					c-0.3,168.78-0.9,295.33-1.13,464.04C1348.09,6189.37,1348.69,6062.82,1348.99,5894.04 M1348.31,6372.16L1348.31,6372.16
					 M1348.91,7075.28l-0.23-84.39L1348.91,7075.28 M1348.76,5936.2L1348.76,5936.2 M1348.99,6062.82L1348.99,6062.82
					 M1348.99,5894.04L1348.99,5894.04 M1349.29,7342.46L1349.29,7342.46 M1349.29,6990.89L1349.29,6990.89 M1350.71,8903.41
					L1350.71,8903.41 M1351.84,3151.85l-0.75-365.64L1351.84,3151.85 M1351.84,3151.85l-0.75-365.64L1351.84,3151.85
					 M1351.84,3151.85l0.08,56.24l0.15,56.24l0.08,56.31l0.14,53.28c0,1.93,0.01,3.71,0.01,5.5l0.07,53.69l0.15,56.24l0.07,56.24
					l0.15,56.31l0.15,56.24l0.07,42.16l0.15,56.24l0.15,56.31l0.15,56.1l0.15,42.3l0.15,56.24l0.23,42.09
					c-0.2-216.56-0.74-401.61-1.3-584.75l-0.05-19.84l-0.05-15.03c-0.07-22.39-0.14-44.92-0.2-67.43l-0.04-16.07l-0.15-56.1
					l-0.11-31.32C1351.96,3196.63,1351.9,3174.44,1351.84,3151.85 M1352.29,2223.71c-0.01,24.44-0.02,49.3-0.02,74.5
					c0,17.1,0.01,34.61,0.02,51.98v56.38l0.08,56.1l0.07,70.45l0.09,33.65c0.06,30.49,0.13,61.03,0.21,91.66l0,1.24l0.15,56.24
					l-0.15-56.24l0.15,56.24l-0.15-56.24l0-0.48c0.05,18.94,0.09,37.69,0.15,56.71c-0.07-22.8-0.13-47.73-0.17-72.98l-0.05-39.63
					l-0.08-70.17l-0.03-22.18c-0.02-21.7-0.03-43.68-0.05-65.71v-38.66l-0.05-40.16
					C1352.42,2316.89,1352.37,2268.49,1352.29,2223.71 M1352.29,2223.71L1352.29,2223.71 M1356.71,8144.05L1356.71,8144.05
					 M1357.16,8087.67h-0.23l-0.23,56.38L1357.16,8087.67"/>
				<path class="st1" d="M1351.84,3151.85c0.15,73.6,0.29,147.91,0.44,222.06l-0.14-53.28l-0.08-56.31l-0.15-56.24L1351.84,3151.85"
					/>
				<path class="st1" d="M1352.03,3219l0.11,31.32l0.15,56.1l0.04,16.07C1352.23,3288.29,1352.12,3253.75,1352.03,3219"/>
				<path class="st1" d="M1352.29,3379.41c0.44,221.85,0.92,441.58,1.65,630.13l-0.23-42.09l-0.15-56.24l-0.15-42.3l-0.15-56.1
					l-0.15-56.31l-0.15-56.24l-0.07-42.16l-0.15-56.24l-0.15-56.31l-0.07-56.24l-0.15-56.24L1352.29,3379.41"/>
				<path class="st1" d="M1352.53,3389.92l0.05,15.03l0.05,19.84C1352.6,3413.19,1352.57,3401.52,1352.53,3389.92"/>
				<path class="st2" d="M1356.79,6695.64l0.05,6.17l-0.04,9C1356.8,6705.52,1356.79,6700.64,1356.79,6695.64"/>
				<polyline class="st3" points="1360.09,4108.08 1360.62,4012.84 1360.09,4108.08 				"/>
				<polyline class="st3" points="1350.71,8903.41 1350.94,8833.1 1350.71,8903.41 				"/>
				<polyline class="st3" points="1352.59,8650.17 1352.81,8340.91 1352.59,8650.17 				"/>
				<polyline class="st3" points="1354.24,8158.12 1354.46,8495.61 1354.24,8158.12 				"/>
				<polyline class="st7" points="1351.84,3151.85 1351.91,3208.09 1352.06,3264.32 1352.14,3320.63 1352.28,3373.91 
					1352.14,3320.63 1352.06,3264.32 1351.91,3208.09 1351.84,3151.85 				"/>
				<polyline class="st7" points="1352.03,3219 1352.14,3250.32 1352.29,3306.41 1352.33,3322.49 1352.29,3306.41 1352.14,3250.32 
					1352.03,3219 				"/>
				<polyline class="st7" points="1352.29,3379.41 1352.36,3433.1 1352.51,3489.34 1352.59,3545.57 1352.74,3601.88 
					1352.89,3658.12 1352.96,3700.28 1353.11,3756.51 1353.26,3812.82 1353.41,3868.91 1353.56,3911.21 1353.71,3967.45 
					1353.94,4009.54 1353.71,3967.45 1353.56,3911.21 1353.41,3868.91 1353.26,3812.82 1353.11,3756.51 1352.96,3700.28 
					1352.89,3658.12 1352.74,3601.88 1352.59,3545.57 1352.51,3489.34 1352.36,3433.1 1352.29,3379.41 				"/>
				<polyline class="st7" points="1352.53,3389.92 1352.59,3404.95 1352.64,3424.79 1352.59,3404.95 1352.53,3389.92 				"/>
				<polyline class="st7" points="1351.09,2786.21 1351.84,3151.85 1351.09,2786.21 				"/>
				<polyline class="st7" points="1351.09,2786.21 1351.84,3151.85 1351.09,2786.21 				"/>
				<path class="st2" d="M1344.86,4754.97c0.15-168.71,0.38-337.49,0.82-449.96c1.35-314.14,2.3-686.64,2.69-1072.06
					c-0.39,385.41-1.34,757.91-2.69,1072.06C1345.24,4417.48,1345.01,4586.26,1344.86,4754.97"/>
				<path class="st2" d="M1348.09,2265.94c0.33,188.48,0.48,383.63,0.48,579.12C1348.57,2649.57,1348.42,2454.56,1348.09,2265.94"/>
				<path class="st1" d="M1352.29,2406.57v-56.38c0.02,70.72,0.1,143.17,0.24,216.58l-0.09-33.65l-0.07-70.45L1352.29,2406.57"/>
				<path class="st1" d="M1352.46,2366.4l0.05,40.16v38.66C1352.5,2418.79,1352.48,2392.56,1352.46,2366.4"/>
				<path class="st1" d="M1352.56,2510.94l0.03,22.18l0.08,70.17l0.05,39.63C1352.64,2600.95,1352.59,2556.6,1352.56,2510.94"/>
				<path class="st1" d="M1352.74,2658.43c0,0.21,0,0.48,0,0.76l0,0.48L1352.74,2658.43"/>
				<polyline class="st2" points="1353.34,1886.23 1353.41,1914.38 1353.34,1886.23 				"/>
				<path class="st2" d="M1352.44,1998.7c0.3-351.56,1.2-689.05,1.43-1040.61l1.05,210.94l-0.15-28.08
					c-0.05,46.9-0.06,106.3-0.06,171.32c0,32.47,0,66.6,0,101c0,103.75-0.02,212.72-0.17,304.19l-0.6,112.54h-0.07l-0.45,14.08
					l-0.45-84.53l0.38,126.69l0.08,28.15l0.98,351.56L1352.44,1998.7"/>
				<path class="st3" d="M1354.7,1312.26c0-65.02,0.01-124.42,0.06-171.32c-0.05,46.9-0.06,106.16-0.06,171.18
					c0,32.61,0,66.74,0,101.14C1354.71,1378.86,1354.7,1344.73,1354.7,1312.26"/>
				<polyline class="st3" points="1354.76,1140.94 1354.91,1169.02 1354.76,1140.94 				"/>
				<polyline class="st3" points="1353.41,1844.07 1353.86,1829.99 1353.94,1829.99 1353.41,1844.07 				"/>
				<polyline class="st3" points="1352.44,1998.7 1354.39,2265.94 1352.44,1998.7 				"/>
				<path class="st2" d="M1347.6,1938.75c0-210.39,0.51-476.73,0.94-699.41c1.5,182.85,2.62,506.27,3.9,759.36l-0.15,225.01
					l-0.38-126.55c-0.13-18.46-0.33-90.91-0.52-98.13c-0.24-9.06-0.45,89.34-0.45,548.16l0.15,239.02
					c-0.6-267.17-1.27-506.26-2.4-703.13l-0.6,182.85l-0.22-112.54c-0.14-44.35-0.22-96.82-0.25-154.91
					C1347.6,1979.12,1347.6,1959.35,1347.6,1938.75"/>
				<path class="st3" d="M1348.69,2083.09c1.12,196.86,1.8,435.95,2.4,703.13C1350.49,2519.04,1349.81,2279.95,1348.69,2083.09"/>
				<path class="st3" d="M1351.39,1999.04c0.19,7.21,0.39,79.66,0.52,98.13l0.38,126.55l-0.38-126.55
					C1351.78,2078.7,1351.58,2006.25,1351.39,1999.04"/>
				<path class="st8" d="M1346.29,2661.66c0-116.25,0.01-232.37,0.02-348.61c0.04-348.55,0.15-697.02,0.28-1045.56
					c0.17-105.54,0.25-211.08,0.25-316.48c0-35.23-0.01-70.31-0.03-105.4c1.8-112.54,3.6-211.08,5.55-281.25l1.5,393.72
					c-0.23,351.56-1.12,689.05-1.43,1040.61c-1.27-253.1-2.4-576.51-3.9-759.36c-0.43,222.68-0.94,489.02-0.94,699.41v0.14
					c0,20.46,0.01,40.23,0.02,59.6c0.03,58.09,0.11,110.56,0.25,154.91l0.22,112.54c-0.37,121.12-0.56,251.52-0.66,387.89
					c-0.1,136.65-0.11,279.18-0.11,424.55c0,24.17,0,48.61,0,72.93c0,78.15,0,156.9-0.02,235.66c-0.02,81.08-0.05,162.25-0.11,243
					l-0.67,42.23C1346.35,3335.33,1346.29,2998.53,1346.29,2661.66"/>
				<path class="st3" d="M1346.29,2661.66c0,336.87,0.06,673.67,0.22,1010.53C1346.36,3335.33,1346.29,2998.53,1346.29,2661.66"/>
				<path class="st3" d="M1346.31,2313.05c0.04-348.55,0.15-697.02,0.28-1045.56C1346.46,1616.03,1346.36,1964.5,1346.31,2313.05"/>
				<path class="st3" d="M1347.3,3386.96c0.02-78.76,0.02-157.51,0.02-235.66c0-24.31,0-48.75,0-72.93
					c0-145.36,0.01-287.9,0.11-424.55c-0.1,136.65-0.11,279.18-0.11,424.55c0,24.17,0,48.49,0,72.93
					C1347.32,3229.38,1347.32,3308.13,1347.3,3386.96"/>
				<path class="st3" d="M1347.6,1938.89v-0.14c0,20.6,0.01,40.37,0.02,59.74C1347.6,1979.12,1347.6,1959.35,1347.6,1938.89"/>
				<path class="st3" d="M1348.54,1239.34c1.5,182.85,2.62,506.27,3.9,759.36C1351.16,1745.6,1350.04,1422.19,1348.54,1239.34"/>
				<path class="st2" d="M1346.59,1267.49l0.23-421.88c0.02,35.09,0.03,70.17,0.03,105.4
					C1346.84,1056.41,1346.76,1161.95,1346.59,1267.49"/>
				<polyline class="st3" points="1346.59,1267.49 1346.81,845.61 1346.59,1267.49 				"/>
			</g>
		</g>
	</g>
</g>
</svg>
