<?xml version="1.0" encoding="utf-8"?>
<!-- Generator: Adobe Illustrator 24.0.1, SVG Export Plug-In . SVG Version: 6.00 Build 0)  -->
<svg version="1.1" id="Layer_1" xmlns="http://www.w3.org/2000/svg" xmlns:xlink="http://www.w3.org/1999/xlink" x="0px" y="0px"
	 viewBox="0 0 595.28 841.89" style="enable-background:new 0 0 595.28 841.89;" xml:space="preserve">
<style type="text/css">
	.st0{stroke:#000000;stroke-width:0.25;stroke-miterlimit:10;}
</style>
<g>
	<path class="st0" d="M496.63,264.97c-7.74-6.48-17.36-9.71-28.87-9.71c-6.93,0-13.89,1.26-20.91,3.78
		c-3.38,1.18-6.74,2.6-10.09,4.24c0.33,0.39,0.68,0.76,1,1.15c-0.32-0.39-0.68-0.76-1-1.15c-9.66,4.72-19.18,11.33-28.56,19.85
		c-12.64,11.47-25.25,26.69-37.84,45.67L347.9,366.8c-0.42,0.71-1.22,1.97-1.73,2.63c-3.9,4.96-14.09,16.72-36.15,26.93
		c1.35-3.97,1.31-4.03,2.93-8.93c2.02-6.12,3.75-11.33,5.19-15.65c0.81-1.08,1.3-2.16,1.48-3.24c0-0.72-0.29-1.39-0.88-2.02
		s-1.24-1.03-1.96-1.22c-0.18-0.18-0.45-0.27-0.81-0.27c-9.17-0.09-19.02,3.15-29.55,9.71c-4.33,2.74-8.1,5.66-11.37,8.74
		c-2.86,0.55-8.54,1.93-17.12,4.18c4.13-5.76,6.2-10.97,6.2-15.65c0-5.94-3.24-8.9-9.71-8.9c-2.34,0-4.95,0.31-7.82,0.94
		c-2.88,0.63-6.16,1.67-9.85,3.1c3.42-5.94,6.68-11.28,9.78-16.05c3.1-4.77,6-9.13,8.7-13.09c0.54-0.81,0.95-1.26,1.21-1.35
		c0.27-0.09,0.41-0.31,0.41-0.67c0-0.63-0.59-0.76-1.75-0.41c-2.79,1.08-4.41,1.98-4.86,2.7c-4.68,7.02-8.73,13.13-12.14,18.35
		c-3.42,5.22-6.25,9.53-8.5,12.95c-4.23,1.71-6.61,3.33-7.15,4.85c-0.27,1.08,0.49,2.43,2.29,4.05c-1.98,3.51-3.89,7.04-5.73,10.59
		c-1.84,3.55-3.76,7.04-5.73,10.46c-1.08,1.8-1.98,3.42-2.7,4.86c-0.72,1.44-1.39,2.81-2.02,4.11c-0.63,1.3-1.28,2.61-1.96,3.91
		c-0.67,1.3-1.42,2.76-2.23,4.38c-7.64,0.09-15.24,0.74-22.8,1.96c-7.55,1.22-15.29,2.86-23.2,4.93
		c-11.06,2.97-21.16,6.81-30.29,11.54c-5.83,3.01-11.24,6.41-16.32,10.1c0.18,0.55,0.34,1.1,0.53,1.65
		c-0.19-0.54-0.35-1.1-0.53-1.65c-2.87,2.09-5.67,4.25-8.31,6.56c-14.3,12.32-21.45,26.53-21.45,42.63c0,5.58,0.83,10.68,2.5,15.31
		c1.67,4.63,4.16,8.97,7.49,13.02c6.74,7.83,14.88,11.74,24.42,11.74c5.94,0,12.1-1.66,18.48-4.99c6.21-3.42,12.4-8.37,18.55-14.75
		c-0.31-0.33-0.65-0.65-0.96-0.98c0.31,0.34,0.64,0.65,0.96,0.98c2.84-2.94,5.67-6.16,8.5-9.73c2.65,3.94,6.19,7.71,10.75,11.29
		c10.79,8.54,22.67,12.46,35.62,11.74c37.77-2.43,73-49.88,99.53-125.52l0.88-2.51c0.13-0.39,0.22-0.65,0.34-1
		c22.45-10.06,36.29-26.81,36.29-26.81c-5.31,9.04-13.5,23.97-17.1,31.62c-0.09,0.27-0.14,0.63-0.14,1.08
		c0,1.44,0.39,1.96,1.08,2.16c0.31,0.09,3.99-3.87,6.6-6.73c1.86-2.04,3.79-4.03,5.82-5.91c7.46-6.93,13.39-11.58,17.81-13.94
		c0.99-0.63,3.27-1.65,4.08-1.65c1.35,0,2.06,0.59,2.06,1.85c0,0.72-0.88,2.48-1.23,2.93c0,0-13.81,15.29-3.25,22.21
		c1.97,1.29,4.28,1.24,5.9,1.24c5.21,0,13.67-4.77,25.36-14.3l0.94-0.95l-0.13-0.13c0-0.09-0.05-0.18-0.13-0.27
		c-0.09,0.09-0.25,0.18-0.47,0.27c-0.23,0.09-0.47,0.23-0.74,0.41c-9.98,7.56-18.06,12.74-22.46,13.09
		c-14.74,1.19-9.9-9.61-7.86-12.75c2.46-3.79,10.33-12.44,10.5-14.69c0,0,0.45-1.89-0.8-2.55c0,0-6.12-3.57-23.36,10.96
		c-3.42,2.88-6.75,5.76-9.98,8.63l-3.51,3.11c5.04-9.17,9.81-17.9,14.57-26.04c0.77-1.31,0.79-2.67,3.38-2.84
		c1.44,0.09,2.92,0.16,4.45,0.2c1.53,0.05,3.06,0.07,4.59,0.07c35.08,0,64.58-9.11,100.74-26.1c4.02-2.23,8.34-5.16,12.31-8.08
		c-0.2-0.73-0.34-1.47-0.54-2.2c0.21,0.72,0.35,1.47,0.54,2.2c4.68-3.43,8.87-6.86,11.45-9.14c5.62-4.96,20.28-24.98,21.27-39.05
		C507.7,278.31,504.01,271.26,496.63,264.97z M284.82,378.79c6.48-4.95,13-8.18,19.56-9.71c3.15-0.81,5.22-1.03,6.21-0.67
		c0.63,0.09,0.95,0.95,0.95,2.56v0.81c-0.27,3.24-1.53,5.71-3.78,7.42c-1.8,1.62-4.07,3.49-6.81,5.6c-2.75,2.11-5.96,4.47-9.65,7.08
		c-9.17,6.57-14.7,9.85-16.59,9.85c-2.16,0-3.24-1.44-3.24-4.32c0-0.45,0.02-0.81,0.07-1.08c0.05-0.27,0.11-0.63,0.2-1.08
		C273.63,389.68,277.99,384.19,284.82,378.79z M133.7,527.43c-5.03,2.79-10.48,4.18-16.32,4.18c-4.49,0-8.7-0.79-12.61-2.36
		c-3.91-1.58-7.49-4.03-10.73-7.35c-6.92-6.75-10.39-14.89-10.39-24.42c0-15.11,8.19-29.64,24.56-43.58
		c7.28-6.39,15.38-11.92,24.28-16.6c8.91-4.68,18.66-8.59,29.28-11.74c7.38-2.16,14.5-3.8,21.38-4.92
		c6.88-1.12,13.74-1.73,20.57-1.82c-0.9,2.07-1.71,3.93-2.43,5.6c-0.72,1.66-1.35,3.17-1.89,4.52c-2.07,4.41-4.07,8.83-6,13.29
		c-0.49,1.12-0.99,2.2-1.48,3.32c-16.84,10.96-29.26,22.3-33.37,31.99c-1.44,3.42-2.16,6.79-2.16,10.12c0,5.14,1.3,10.03,3.86,14.68
		C151.3,514.33,142.45,522.71,133.7,527.43z M160.17,489.82c0-2.88,0.54-5.76,1.62-8.63c3.21-8.03,13.72-18.89,27.32-29.33
		c-0.53,1.17-1.05,2.37-1.58,3.53c-3.69,8.18-7.46,15.65-11.33,22.39c-3.87,6.75-7.74,12.91-11.6,18.48
		c-0.84,1.23-1.68,2.38-2.52,3.55C160.81,496.64,160.17,493.31,160.17,489.82z M286.64,445.98c-4.99,10.79-10.5,21.09-16.53,30.89
		c-19.6,31.75-40.29,48.03-62.06,48.84c-12.5,0.54-23.74-3.01-33.73-10.66c-4.82-3.72-8.39-7.73-10.75-12.03
		c1.94-2.53,3.87-5.15,5.8-7.97c8.76-12.81,17.37-28.74,25.83-47.73c10.12-7.19,21.47-13.94,32.63-19.13
		c24.37-11.06,15.43-7.4,77.04-27.32C300.93,413.02,291.63,435.19,286.64,445.98z M305.97,396.96c-0.31,0.96-1.1,1.72-2.07,2.01
		c-58.05,17.7-49.92,15.09-73.86,25.94c-11.64,5.28-22.67,11.09-32.5,17.1c1.75-4.06,3.5-8.2,5.23-12.52c0.72-1.8,1.44-3.6,2.16-5.4
		c0.72-1.8,1.44-3.55,2.16-5.26c3.33,0,6.21,0.13,8.63,0.41c1.35,0.27,2.02-0.05,2.02-0.95c0-0.54-0.67-0.9-2.02-1.08
		c-2.43-0.27-5.08-0.41-7.96-0.41c2.78-6.93,5.44-12.66,7.96-17.2c2.52-4.54,4.88-8.43,7.08-11.67c2.2-3.24,4.27-6.11,6.2-8.63
		c1.93-2.52,3.75-5.21,5.46-8.09c3.42-1.8,6.45-3.15,9.11-4.05c2.65-0.9,5.01-1.35,7.08-1.35c5.4,0,8.09,2.43,8.09,7.28
		c0,5.67-2.29,11.11-6.88,16.32c-8.63,2.88-15.38,5.19-20.24,6.95c-4.85,1.76-7.87,2.99-9.04,3.71c-0.36,0.36-0.54,0.81-0.54,1.35
		c0,1.89,0.95,2.74,2.83,2.56c11.6-1.35,21.18-5.53,28.74-12.55c4.59-1.53,8.81-2.9,12.68-4.11c2.5-0.79,4.79-1.48,6.99-2.13
		c-3.82,3.9-6.82,8.06-8.98,12.48c-0.81,1.53-1.22,2.92-1.22,4.18c0,3.24,1.62,4.85,4.86,4.85c0.99,0,1.84-0.13,2.56-0.4
		c2.61-1.17,5.8-2.9,9.58-5.19c3.78-2.3,8.23-5.24,13.35-8.84c4.05-2.88,7.44-5.33,10.19-7.35c2.74-2.02,7.18-6.3,8.71-7.74
		L305.97,396.96z M489.79,318.17c-7.27,9.37-17.44,16.25-25.59,20.99c-8.82,5.13-17.94,9.53-27.39,13.22
		c-9.44,3.69-19.25,6.74-29.41,9.17c-8.01,1.8-15.81,3.17-23.41,4.11c-7.6,0.95-15.13,1.42-22.6,1.42c-1.8,0-3.53-0.05-5.19-0.13
		c-1.67-0.09-3.26-0.18-4.79-0.27c13.13-22.3,39.09-61.18,52.94-75.34c13.85-14.17,28.33-24.4,43.44-30.69
		c6.21-2.61,12.59-3.91,19.16-3.91c10.07,0,18.89,2.7,26.44,8.09c7.56,5.13,11.33,11.6,11.33,19.43
		C504.73,291.01,499.21,306.03,489.79,318.17z"/>
	<g>
		<g>
			<path d="M481.08,394.72c-2.88-7.89-7.56-15.99-15.93-18.9c-4.54-1.58-9.52-1.68-14.27-1.68c-5.09,0-10.18,0.43-15.21,1.19
				c-5.18,0.78-10.29,1.92-15.36,3.2c-4.28,1.08-8.39,2.37-12.4,4.22c-7.98,3.69-15.33,8.6-22.64,13.44
				c-3.63,2.41-7.25,4.85-11.03,7.03c-1.53,0.88-3.12,1.82-4.77,2.45c-1.91,0.72-4.62,0.27-6.55-0.23
				c-0.22-0.06-1.42,0.05-0.89,0.18c1.53,0.39,3.13,0.57,4.71,0.64c1.31,0.05,2.69,0.09,3.91-0.43c2.88-1.22,5.59-2.89,8.24-4.55
				c7.17-4.5,14.05-9.43,21.36-13.7c3.8-2.22,7.71-4.29,11.79-5.94c4.48-1.81,9.2-2.91,13.9-3.99c10.44-2.4,21.34-3.93,32.06-2.91
				c5.68,0.54,10.66,2.64,14.51,6.9c3.38,3.73,5.62,8.34,7.33,13.04C479.94,394.98,481.11,394.81,481.08,394.72L481.08,394.72z"/>
		</g>
	</g>
</g>
</svg>
